<svg version="1.1" id="Layer_1" xmlns="http://www.w3.org/2000/svg" xmlns:xlink="http://www.w3.org/1999/xlink" x="0px" y="0px"
	 width="100%" viewBox="0 0 96 96" enable-background="new 0 0 96 96" xml:space="preserve">
<path fill="#000000" opacity="1.000000" stroke="none" 
	d="
M61.000000,97.000000 
	C40.666672,97.000000 20.833340,97.000000 1.000008,97.000000 
	C1.000005,65.000008 1.000005,33.000019 1.000003,1.000021 
	C32.999985,1.000014 64.999969,1.000014 96.999969,1.000007 
	C96.999977,32.999981 96.999977,64.999962 96.999985,96.999969 
	C85.166664,97.000000 73.333336,97.000000 61.000000,97.000000 
M15.981084,83.594948 
	C16.365036,83.957176 16.748989,84.319397 18.049082,84.758286 
	C24.047073,84.547623 30.045065,84.336967 36.874874,84.510544 
	C39.593224,84.381737 42.311569,84.252937 45.830345,84.647697 
	C57.526791,84.659164 69.223236,84.670624 81.436798,84.824333 
	C81.551147,84.527367 81.665489,84.230392 81.908424,83.214249 
	C80.966400,82.802513 80.024368,82.390785 79.005844,81.047127 
	C79.029800,69.339249 79.053764,57.631374 79.785423,45.989971 
	C80.877518,46.650314 81.969612,47.310658 83.595810,48.293953 
	C85.082344,46.004356 86.527336,43.778744 87.996574,41.515789 
	C74.681702,31.802893 61.705444,22.337002 49.229530,13.236105 
	C43.927952,16.672007 39.047054,19.835266 34.016552,22.398699 
	C34.011322,21.986956 34.006092,21.575214 34.708210,20.779514 
	C35.261856,18.724430 35.815498,16.669348 36.471088,14.235847 
	C30.836767,14.235847 26.104733,14.235847 19.396769,14.235847 
	C21.419556,17.134523 22.709780,18.983431 23.245043,21.273220 
	C23.158375,24.787888 23.071709,28.302553 22.360779,32.121895 
	C18.303846,35.239704 14.246914,38.357513 9.933776,41.672222 
	C11.528180,43.971134 13.037100,46.146790 14.347639,48.036407 
	C16.361914,47.124069 17.649813,46.540733 19.041824,46.895027 
	C19.027672,56.962772 19.102505,67.032219 18.910238,77.096565 
	C18.878838,78.740280 17.668634,80.361473 16.485809,82.066368 
	C16.358374,82.362289 16.230938,82.658203 15.981084,83.594948 
z"/>
<path fill="#D9D9D9" opacity="1.000000" stroke="none" 
	d="
M79.077721,45.923500 
	C79.053764,57.631374 79.029800,69.339249 78.663704,81.517197 
	C77.560646,81.990715 76.799736,81.994164 75.986633,81.680176 
	C75.287262,80.913811 74.640076,80.464890 73.973938,79.777412 
	C73.954987,79.538864 73.869484,79.067963 73.853836,78.744873 
	C73.216095,77.946342 72.594017,77.470901 71.959244,76.739548 
	C71.893959,76.321114 71.841377,76.158592 71.843002,75.662704 
	C71.861664,74.881897 71.826096,74.434433 71.871872,73.525314 
	C71.899223,65.716469 71.845230,58.369293 71.848190,50.609154 
	C71.863335,48.810074 71.821518,47.423958 71.805603,45.784325 
	C71.544365,45.412750 71.257233,45.294689 70.508171,45.106972 
	C64.105064,45.037312 58.163895,45.037312 51.884521,45.037312 
	C51.884521,56.086426 51.884521,66.548622 51.603645,76.979492 
	C50.842918,77.607140 50.363064,78.266113 49.631622,79.062141 
	C48.660320,79.772141 47.940605,80.345085 46.993317,81.183273 
	C46.187141,82.340393 45.608528,83.232262 45.029919,84.124138 
	C42.311569,84.252937 39.593224,84.381737 36.235664,83.937698 
	C29.483215,83.196609 23.369978,83.028381 17.225830,82.842590 
	C17.194920,82.825027 17.154028,82.766869 17.151539,82.566559 
	C17.149048,82.366257 17.003269,81.993080 17.003269,81.993080 
	C17.668634,80.361473 18.878838,78.740280 18.910238,77.096565 
	C19.102505,67.032219 19.027672,56.962772 19.041414,46.516479 
	C19.041004,46.137928 19.230131,46.051922 19.571472,46.020149 
	C29.619671,39.098732 39.326527,32.209084 49.158863,25.230371 
	C53.490768,28.372604 57.731544,31.534863 62.062355,34.568588 
	C67.599174,38.447132 73.208611,42.222012 78.886574,46.078785 
	C78.986397,46.116001 79.077721,45.923500 79.077721,45.923500 
M25.060640,55.822998 
	C24.997765,57.540333 24.934889,59.257668 24.203896,61.318977 
	C24.309778,62.205082 24.400553,63.864098 24.523710,63.866512 
	C30.947927,63.992104 37.374889,63.977287 43.528267,63.977287 
	C43.235580,57.379669 42.968819,51.366440 42.694794,45.189510 
	C36.918854,45.189510 31.471529,45.189510 25.278069,45.507412 
	C25.259172,48.012375 25.240278,50.517338 25.104288,53.670628 
	C25.143284,54.106346 25.182280,54.542061 25.060640,55.822998 
z"/>
<path fill="#EB4B1B" opacity="1.000000" stroke="none" 
	d="
M34.166157,22.998524 
	C39.047054,19.835266 43.927952,16.672007 49.229530,13.236105 
	C61.705444,22.337002 74.681702,31.802893 87.996574,41.515789 
	C86.527336,43.778744 85.082344,46.004356 83.595810,48.293953 
	C81.969612,47.310658 80.877518,46.650314 79.431572,45.956734 
	C79.077721,45.923500 78.986397,46.116001 78.940262,45.733482 
	C69.679886,38.270096 60.533337,31.096807 51.160561,24.232414 
	C50.063789,23.429167 47.301506,23.699957 46.024509,24.547443 
	C40.006645,28.541246 34.104874,32.741295 28.429749,37.208317 
	C25.103621,39.826393 22.279869,43.082710 19.230133,46.051922 
	C19.230131,46.051922 19.041004,46.137928 18.989357,46.047661 
	C17.649813,46.540733 16.361914,47.124069 14.347639,48.036407 
	C13.037100,46.146790 11.528180,43.971134 9.933776,41.672222 
	C14.246914,38.357513 18.303846,35.239704 23.015427,31.941532 
	C27.168768,28.840286 30.667461,25.919405 34.166157,22.998524 
z"/>
<path fill="#EB4B1A" opacity="1.000000" stroke="none" 
	d="
M24.000006,20.832338 
	C22.709780,18.983431 21.419556,17.134523 19.396769,14.235847 
	C26.104733,14.235847 30.836767,14.235847 36.471088,14.235847 
	C35.815498,16.669348 35.261856,18.724430 33.903717,20.904125 
	C30.066154,20.963268 27.033079,20.897804 24.000006,20.832338 
z"/>
<path fill="#B5AFA6" opacity="1.000000" stroke="none" 
	d="
M45.430130,84.385918 
	C45.608528,83.232262 46.187141,82.340393 47.207264,81.206924 
	C47.648777,80.965324 48.080605,81.003326 48.373138,81.290436 
	C57.790051,81.717567 66.914436,81.857590 76.038818,81.997620 
	C76.799736,81.994164 77.560646,81.990715 78.701950,81.983154 
	C80.024368,82.390785 80.966400,82.802513 81.655426,83.641708 
	C81.142776,84.195709 80.981865,84.400024 80.919685,84.682083 
	C69.223236,84.670624 57.526791,84.659164 45.430130,84.385918 
z"/>
<path fill="#D9D8D8" opacity="1.000000" stroke="none" 
	d="
M23.622524,21.052780 
	C27.033079,20.897804 30.066154,20.963268 33.550049,21.096104 
	C34.006092,21.575214 34.011322,21.986956 34.091354,22.698610 
	C30.667461,25.919405 27.168768,28.840286 23.327557,31.789194 
	C23.071709,28.302553 23.158375,24.787888 23.622524,21.052780 
z"/>
<path fill="#B5AFA6" opacity="1.000000" stroke="none" 
	d="
M17.256739,82.860146 
	C23.369978,83.028381 29.483215,83.196609 35.819756,83.745575 
	C30.045065,84.336967 24.047073,84.547623 17.607424,84.414932 
	C17.196091,83.667770 17.226414,83.263962 17.256739,82.860146 
z"/>
<path fill="#7D7971" opacity="1.000000" stroke="none" 
	d="
M17.225830,82.842590 
	C17.226414,83.263962 17.196091,83.667770 17.149353,84.376602 
	C16.748989,84.319397 16.365036,83.957176 16.313919,83.278183 
	C16.815847,82.896568 16.984938,82.831718 17.154028,82.766869 
	C17.154028,82.766869 17.194920,82.825027 17.225830,82.842590 
z"/>
<path fill="#B5AFA6" opacity="1.000000" stroke="none" 
	d="
M17.151539,82.566559 
	C16.984938,82.831718 16.815847,82.896568 16.375130,82.957779 
	C16.230938,82.658203 16.358374,82.362289 16.744539,82.029724 
	C17.003269,81.993080 17.149048,82.366257 17.151539,82.566559 
z"/>
<path fill="#7D7971" opacity="1.000000" stroke="none" 
	d="
M81.178238,84.753212 
	C80.981865,84.400024 81.142776,84.195709 81.591125,84.001289 
	C81.665489,84.230392 81.551147,84.527367 81.178238,84.753212 
z"/>
<path fill="#754E34" opacity="1.000000" stroke="none" 
	d="
M26.024204,45.189510 
	C31.471529,45.189510 36.918854,45.189510 42.694794,45.189510 
	C42.968819,51.366440 43.235580,57.379669 43.528267,63.977287 
	C37.374889,63.977287 30.947927,63.992104 24.523710,63.866512 
	C24.400553,63.864098 24.309778,62.205082 24.909389,61.149063 
	C26.785229,60.634045 27.955572,60.288948 29.431654,60.087807 
	C30.702085,60.487938 31.666777,60.744118 32.631466,61.000294 
	C32.750919,60.762669 32.870369,60.525043 32.989819,60.287415 
	C31.046011,58.550858 29.102201,56.814301 26.835793,55.056137 
	C26.082556,55.015614 25.651915,54.996696 25.221273,54.977779 
	C25.182280,54.542061 25.143284,54.106346 25.480011,53.338184 
	C26.278233,52.984085 26.700729,52.962429 27.477036,52.950977 
	C29.288246,51.001125 30.745646,49.041065 32.178284,47.114304 
	C31.483419,47.327324 30.300224,47.690048 28.824095,47.920029 
	C27.695509,46.921356 26.859856,46.055435 26.024204,45.189510 
M38.229225,47.031876 
	C37.542698,47.698753 36.856174,48.365631 36.034248,49.826187 
	C35.727299,52.113209 36.243664,53.586250 39.774475,52.940269 
	C40.124416,51.640633 40.474361,50.340992 40.942997,48.339890 
	C40.283119,47.948849 39.623245,47.557804 38.229225,47.031876 
M39.395176,56.136646 
	C38.296650,57.564266 37.198124,58.991886 35.989136,60.563057 
	C40.588547,60.292133 41.457237,59.152374 39.395176,56.136646 
z"/>
<path fill="#B0A7A0" opacity="1.000000" stroke="none" 
	d="
M19.571472,46.020149 
	C22.279869,43.082710 25.103621,39.826393 28.429749,37.208317 
	C34.104874,32.741295 40.006645,28.541246 46.024509,24.547443 
	C47.301506,23.699957 50.063789,23.429167 51.160561,24.232414 
	C60.533337,31.096807 69.679886,38.270096 78.840439,45.696266 
	C73.208611,42.222012 67.599174,38.447132 62.062355,34.568588 
	C57.731544,31.534863 53.490768,28.372604 49.158863,25.230371 
	C39.326527,32.209084 29.619671,39.098732 19.571472,46.020149 
z"/>
<path fill="#784F34" opacity="1.000000" stroke="none" 
	d="
M51.884521,77.010818 
	C51.884521,66.548622 51.884521,56.086426 51.884521,45.037312 
	C58.163895,45.037312 64.105064,45.037312 70.516464,45.319817 
	C70.986687,45.602318 70.996239,46.028389 70.864319,46.234138 
	C70.519875,46.695194 70.262077,46.890877 69.495186,47.016628 
	C65.612747,47.000679 62.168148,47.259403 58.781727,46.926453 
	C53.895805,46.446068 52.165569,48.385941 53.166100,53.488960 
	C53.176228,55.614975 53.232758,57.319427 53.235527,59.471733 
	C53.193584,62.906155 53.205399,65.892723 53.167213,69.323334 
	C53.096092,72.132072 53.074974,74.496765 52.763618,76.915222 
	C52.277100,76.982925 52.080811,76.996872 51.884521,77.010818 
z"/>
<path fill="#A29D94" opacity="1.000000" stroke="none" 
	d="
M48.080605,81.003326 
	C48.080605,81.003326 47.648777,80.965324 47.434830,80.941681 
	C47.940605,80.345085 48.660320,79.772141 50.110901,79.083252 
	C58.517670,79.000862 66.193581,79.034409 73.869484,79.067963 
	C73.869484,79.067963 73.954987,79.538864 73.656136,80.043457 
	C64.931725,80.699814 56.506165,80.851570 48.080605,81.003326 
z"/>
<path fill="#B8B1A9" opacity="1.000000" stroke="none" 
	d="
M73.853836,78.744873 
	C66.193581,79.034409 58.517670,79.000862 50.362484,78.946198 
	C50.363064,78.266113 50.842918,77.607140 51.603645,76.979492 
	C52.080811,76.996872 52.277100,76.982925 53.221619,76.972580 
	C59.311226,76.935654 64.652603,76.895142 70.243584,76.891800 
	C70.659584,76.904099 70.825981,76.879227 71.234558,76.908401 
	C71.476746,76.962433 71.971931,76.995453 71.971931,76.995453 
	C72.594017,77.470901 73.216095,77.946342 73.853836,78.744873 
z"/>
<path fill="#855132" opacity="1.000000" stroke="none" 
	d="
M70.992371,76.854362 
	C70.825981,76.879227 70.659584,76.904099 70.244438,76.457008 
	C69.986328,73.644577 69.976982,71.304100 69.977158,68.503380 
	C69.979660,63.707558 69.972649,59.371986 69.978378,54.590714 
	C69.980423,51.772320 69.969727,49.399628 69.959023,47.026932 
	C70.262077,46.890877 70.519875,46.695194 71.060249,46.234333 
	C71.388092,46.028774 71.779701,46.037838 71.779701,46.037838 
	C71.821518,47.423958 71.863335,48.810074 71.626770,50.953712 
	C71.495766,59.136478 71.643150,66.561729 71.790527,73.986977 
	C71.826096,74.434433 71.861664,74.881897 71.680298,75.775925 
	C71.265785,76.402863 71.108788,76.613487 70.992371,76.854362 
z"/>
<path fill="#908B83" opacity="1.000000" stroke="none" 
	d="
M48.373138,81.290436 
	C56.506165,80.851570 64.931725,80.699814 73.675087,80.282005 
	C74.640076,80.464890 75.287262,80.913811 75.986633,81.680176 
	C66.914436,81.857590 57.790051,81.717567 48.373138,81.290436 
z"/>
<path fill="#84614A" opacity="1.000000" stroke="none" 
	d="
M71.871872,73.525314 
	C71.643150,66.561729 71.495766,59.136478 71.569809,51.366676 
	C71.845230,58.369293 71.899223,65.716469 71.871872,73.525314 
z"/>
<path fill="#795B46" opacity="1.000000" stroke="none" 
	d="
M27.123226,52.940773 
	C26.700729,52.962429 26.278233,52.984085 25.538559,53.014023 
	C25.240278,50.517338 25.259172,48.012375 25.651136,45.348461 
	C26.859856,46.055435 27.695509,46.921356 28.671383,48.233574 
	C28.248812,50.100174 27.686020,51.520473 27.123226,52.940773 
z"/>
<path fill="#795B46" opacity="1.000000" stroke="none" 
	d="
M29.125912,59.943848 
	C27.955572,60.288948 26.785229,60.634045 25.243450,60.977074 
	C24.934889,59.257668 24.997765,57.540333 25.140957,55.400391 
	C25.651915,54.996696 26.082556,55.015614 26.787487,55.404251 
	C27.749821,57.163929 28.437866,58.553890 29.125912,59.943848 
z"/>
<path fill="#84614A" opacity="1.000000" stroke="none" 
	d="
M71.805603,45.784325 
	C71.779701,46.037838 71.388092,46.028774 71.192169,46.028580 
	C70.996239,46.028389 70.986687,45.602318 70.978394,45.389473 
	C71.257233,45.294689 71.544365,45.412750 71.805603,45.784325 
z"/>
<path fill="#84614A" opacity="1.000000" stroke="none" 
	d="
M71.234558,76.908401 
	C71.108788,76.613487 71.265785,76.402863 71.626083,76.109283 
	C71.841377,76.158592 71.893959,76.321114 71.959244,76.739548 
	C71.971931,76.995453 71.476746,76.962433 71.234558,76.908401 
z"/>
<path fill="#82E2FF" opacity="1.000000" stroke="none" 
	d="
M36.169647,49.032509 
	C36.856174,48.365631 37.542698,47.698753 38.661991,47.381310 
	C39.671272,48.167610 40.247787,48.604485 40.824303,49.041355 
	C40.474361,50.340992 40.124416,51.640633 39.343597,52.582474 
	C37.998360,51.160622 37.084003,50.096565 36.169647,49.032509 
z"/>
<path fill="#7DE0FF" opacity="1.000000" stroke="none" 
	d="
M27.477037,52.950977 
	C27.686020,51.520473 28.248812,50.100174 28.964317,48.366322 
	C30.300224,47.690048 31.483419,47.327324 32.178284,47.114304 
	C30.745646,49.041065 29.288246,51.001125 27.477037,52.950977 
z"/>
<path fill="#80DFFD" opacity="1.000000" stroke="none" 
	d="
M29.431652,60.087807 
	C28.437866,58.553890 27.749821,57.163929 27.110083,55.425858 
	C29.102201,56.814301 31.046011,58.550858 32.989819,60.287415 
	C32.870369,60.525043 32.750919,60.762669 32.631466,61.000294 
	C31.666777,60.744118 30.702085,60.487938 29.431652,60.087807 
z"/>
<path fill="#81E0FE" opacity="1.000000" stroke="none" 
	d="
M39.685314,55.917248 
	C41.457237,59.152374 40.588547,60.292133 35.989136,60.563057 
	C37.198124,58.991886 38.296650,57.564266 39.685314,55.917248 
z"/>
<path fill="#9AECFF" opacity="1.000000" stroke="none" 
	d="
M36.101948,49.429348 
	C37.084003,50.096565 37.998360,51.160622 38.961052,52.530067 
	C36.243664,53.586250 35.727299,52.113209 36.101948,49.429348 
z"/>
<path fill="#6AD7FF" opacity="1.000000" stroke="none" 
	d="
M40.883652,48.690620 
	C40.247787,48.604485 39.671272,48.167610 39.029060,47.448753 
	C39.623245,47.557804 40.283119,47.948849 40.883652,48.690620 
z"/>
<path fill="#A95B2B" opacity="1.000000" stroke="none" 
	d="
M69.967636,68.963631 
	C69.976982,71.304100 69.986328,73.644577 69.994827,76.419838 
	C64.652603,76.895142 59.311226,76.935654 53.511852,76.918816 
	C53.074974,74.496765 53.096092,72.132072 53.483269,69.246414 
	C55.241756,67.470436 56.634190,66.215424 58.356987,64.980766 
	C61.459015,67.985413 64.188255,64.423782 67.273636,65.032639 
	C68.391403,66.399651 69.179520,67.681641 69.967636,68.963631 
M59.243393,72.424652 
	C59.488007,71.675659 60.023945,70.880753 59.914711,70.187515 
	C59.707111,68.869995 59.198948,67.578758 58.632828,66.361618 
	C58.548317,66.179909 56.973091,66.353577 56.932823,66.542763 
	C56.612434,68.048073 56.272034,69.620232 56.428505,71.120705 
	C56.490543,71.715622 57.794739,72.181015 59.243393,72.424652 
z"/>
<path fill="#AA5B2B" opacity="1.000000" stroke="none" 
	d="
M69.495186,47.016628 
	C69.969727,49.399628 69.980423,51.772320 69.742569,54.817307 
	C68.329742,56.659847 67.165482,57.830097 65.648621,58.990772 
	C63.864090,57.986641 62.432156,56.992085 60.998375,55.665596 
	C60.990314,54.891125 60.984100,54.448582 61.129532,53.674278 
	C61.150723,52.331909 61.127937,50.483204 60.871880,50.450306 
	C59.484146,50.272030 57.943081,50.273220 56.640575,50.735680 
	C55.380737,51.182995 54.346073,52.264477 53.212502,53.067406 
	C52.165569,48.385941 53.895805,46.446068 58.781727,46.926453 
	C62.168148,47.259403 65.612747,47.000679 69.495186,47.016628 
z"/>
<path fill="#BF6B33" opacity="1.000000" stroke="none" 
	d="
M60.977882,54.006042 
	C60.984100,54.448582 60.990314,54.891125 60.922699,55.999657 
	C57.378155,58.569763 56.980087,61.519329 58.026627,64.960411 
	C56.634190,66.215424 55.241756,67.470436 53.533268,68.802368 
	C53.205399,65.892723 53.193584,62.906155 53.578812,59.448616 
	C55.009014,58.081284 55.979668,57.096230 57.092075,56.312321 
	C58.319534,55.447334 59.677029,54.766880 60.977882,54.006042 
z"/>
<path fill="#BA6732" opacity="1.000000" stroke="none" 
	d="
M61.129532,53.674278 
	C59.677029,54.766880 58.319534,55.447334 57.092075,56.312321 
	C55.979668,57.096230 55.009014,58.081284 53.632568,59.000763 
	C53.232758,57.319427 53.176228,55.614975 53.166100,53.488964 
	C54.346073,52.264477 55.380737,51.182995 56.640575,50.735680 
	C57.943081,50.273220 59.484146,50.272030 60.871880,50.450306 
	C61.127937,50.483204 61.150723,52.331909 61.129532,53.674278 
z"/>
<path fill="#B8652E" opacity="1.000000" stroke="none" 
	d="
M66.001221,59.000351 
	C67.165482,57.830097 68.329742,56.659847 69.729813,55.263004 
	C69.972649,59.371986 69.979660,63.707558 69.977158,68.503380 
	C69.179520,67.681641 68.391403,66.399651 67.276245,64.655800 
	C66.633217,62.462742 66.317223,60.731544 66.001221,59.000351 
z"/>
<path fill="#CE783A" opacity="1.000000" stroke="none" 
	d="
M65.648621,58.990768 
	C66.317223,60.731544 66.633217,62.462742 66.946594,64.570778 
	C64.188255,64.423782 61.459015,67.985413 58.356987,64.980766 
	C56.980087,61.519329 57.378155,58.569763 60.924545,56.331589 
	C62.432156,56.992085 63.864090,57.986641 65.648621,58.990768 
z"/>
<path fill="#BB6832" opacity="1.000000" stroke="none" 
	d="
M58.888390,72.565018 
	C57.794739,72.181015 56.490543,71.715622 56.428505,71.120705 
	C56.272034,69.620232 56.612434,68.048073 56.932823,66.542763 
	C56.973091,66.353577 58.548317,66.179909 58.632828,66.361618 
	C59.198948,67.578758 59.707111,68.869995 59.914711,70.187515 
	C60.023945,70.880753 59.488007,71.675659 58.888390,72.565018 
z"/>
</svg>